<svg width="300" height="300" viewBox="0 0 300 300" fill="none" xmlns="http://www.w3.org/2000/svg">
<path d="M221.033 111.649V38.6064H95.3452V111.649H221.033V111.649ZM105.214 48.4753H211.164V101.781H105.214V48.4753Z" fill="#AD9BCB"/>
<path d="M200.623 58.897H115.755V68.7659H200.623V58.897Z" fill="#AD9BCB"/>
<path d="M200.623 78.6333H115.755V88.5022H200.623V78.6333Z" fill="#AD9BCB"/>
<path d="M257.299 0H68.5717C54.3065 0 42.7007 11.6058 42.7007 25.8716C42.7007 25.8716 42.7027 244.64 42.7027 244.641C42.7027 258.905 54.3072 270.51 68.571 270.51H83.6461V300H120.422V270.51H257.295L257.299 0ZM247.43 218.765H73.5061V9.8689H247.43V218.765ZM63.6372 10.6512V219.235C59.5962 220.011 55.8191 221.742 52.5696 224.311V25.8716C52.5696 18.7693 57.2218 12.7361 63.6372 10.6512ZM68.571 260.641C59.7489 260.641 52.5716 253.464 52.5716 244.641C52.5716 240.362 54.2355 236.34 57.2573 233.319C60.2785 230.298 64.2965 228.634 68.571 228.634H83.6461V260.641H68.571ZM93.515 290.131V228.633H110.553V290.131H93.515ZM247.427 260.641H120.423V228.634H247.427V260.641Z" fill="#AD9BCB"/>
</svg>
