<svg width="100" height="100" viewBox="0 0 100 100" fill="none" xmlns="http://www.w3.org/2000/svg">
<path d="M90.5922 53.2448C90.8125 48.1834 90.5906 32.3594 80.3894 21.0633C73.3856 13.3072 63.1606 9.375 49.9984 9.375C36.8362 9.375 26.6112 13.3072 19.6083 21.0625C9.40781 32.3594 9.18685 48.1834 9.40781 53.2448C4.1 53.9928 0 58.5519 0 64.0625V79.6875C0 85.7186 4.90638 90.625 10.9375 90.625C16.9684 90.625 21.875 85.7186 21.875 79.6875V64.0625C21.875 58.5784 17.8137 54.0375 12.5436 53.2566C12.3575 48.808 12.4864 33.6128 21.9276 23.1575C28.3134 16.0858 37.7578 12.5 49.9984 12.5C62.2298 12.5 71.6697 16.0805 78.0554 23.1416C87.4917 33.5755 87.6351 48.8022 87.4539 53.257C82.185 54.0391 78.125 58.5792 78.125 64.0625V79.6875C78.125 85.7186 83.0314 90.625 89.0625 90.625C95.0934 90.625 100 85.7186 100 79.6875V64.0625C100 58.5519 95.8997 53.9928 90.5922 53.2448ZM18.75 64.0625V79.6875C18.75 83.995 15.245 87.5 10.9375 87.5C6.62982 87.5 3.125 83.995 3.125 79.6875V64.0625C3.125 59.755 6.62982 56.25 10.9375 56.25C15.245 56.25 18.75 59.755 18.75 64.0625ZM96.875 79.6875C96.875 83.995 93.37 87.5 89.0625 87.5C84.7548 87.5 81.25 83.995 81.25 79.6875V64.0625C81.25 59.755 84.7548 56.25 89.0625 56.25C93.37 56.25 96.875 59.755 96.875 64.0625V79.6875Z" fill="#FFC700"/>
</svg>
