<svg width="300" height="300" viewBox="0 0 300 300" fill="none" xmlns="http://www.w3.org/2000/svg">
<g clip-path="url(#clip0_71_30)">
<path d="M293.928 6.07559C290.01 2.15742 284.802 0 279.262 0C274.193 0 269.314 1.8457 265.525 5.19785L70.0987 178.097C70.0787 178.114 70.0641 178.136 70.0442 178.154C69.9914 178.203 69.9364 178.247 69.8854 178.298C69.7641 178.419 69.6516 178.546 69.5467 178.676C69.3832 178.88 69.2496 179.083 69.1283 179.292C69.1137 179.318 69.0979 179.342 69.0832 179.368C68.9666 179.58 68.8676 179.798 68.785 180.02C68.7727 180.053 68.7621 180.086 68.7504 180.119C68.6713 180.349 68.6069 180.582 68.5635 180.819C68.5576 180.839 64.7186 202.279 64.7186 202.279C57.9434 208.544 49.1901 211.978 39.9088 211.978C37.1614 211.978 34.4133 211.669 31.7397 211.059C29.328 210.511 26.8905 211.89 26.1235 214.245L0.237918 293.73C0.233817 293.743 0.232059 293.755 0.228543 293.768C0.167606 293.96 0.118973 294.155 0.0826448 294.352C0.0761994 294.387 0.0732698 294.422 0.0674104 294.457C0.0410432 294.619 0.0246369 294.783 0.0152619 294.947C0.0123323 294.998 0.00881663 295.049 0.00764475 295.102C0.00295725 295.296 0.00705882 295.491 0.0252229 295.685C0.0480744 295.895 0.0814729 296.082 0.123074 296.266C0.133035 296.311 0.144168 296.355 0.155887 296.399C0.199246 296.571 0.251395 296.74 0.314676 296.907C0.321707 296.926 0.327567 296.945 0.334598 296.964C0.40784 297.151 0.493973 297.333 0.591824 297.512C0.608817 297.543 0.628153 297.573 0.646317 297.604C0.728934 297.746 0.818582 297.884 0.91702 298.02C0.946317 298.061 0.975614 298.101 1.00667 298.141C1.12913 298.3 1.25921 298.454 1.40452 298.599C1.51878 298.713 1.63889 298.821 1.76253 298.922C1.88089 299.019 2.00335 299.108 2.12815 299.192C2.66546 299.551 3.24143 299.784 3.83557 299.904C3.99729 299.937 4.13147 299.955 4.26624 299.97C4.28616 299.972 4.30608 299.977 4.32542 299.978C4.48011 299.992 4.63538 300 4.79065 300C5.01624 300 5.23889 299.979 5.46097 299.948C5.50315 299.942 5.54534 299.937 5.58753 299.929C5.80784 299.892 6.02522 299.841 6.23968 299.773C6.25022 299.77 6.26194 299.768 6.27308 299.764L85.7578 273.879C88.1121 273.113 89.4938 270.677 88.943 268.263C86.2342 256.38 89.5143 244.163 97.7239 235.284L119.164 231.445C119.421 231.396 119.653 231.332 119.88 231.254C119.916 231.241 119.95 231.23 119.985 231.217C120.207 231.135 120.423 231.037 120.633 230.922C120.661 230.907 120.688 230.889 120.716 230.873C120.922 230.753 121.122 230.622 121.311 230.47C121.459 230.351 121.585 230.239 121.706 230.119C121.757 230.068 121.801 230.012 121.849 229.96C121.867 229.941 121.888 229.926 121.906 229.906L294.805 34.4783C302.05 26.2875 301.665 13.8117 293.928 6.07559ZM78.8315 266.065L22.2961 284.477L52.278 254.495C54.1477 252.626 54.1477 249.595 52.278 247.726C50.4076 245.856 47.3772 245.856 45.5074 247.726L15.5274 277.707L33.9399 221.167C35.9186 221.423 37.9143 221.553 39.9106 221.553C50.6274 221.553 60.784 217.921 68.983 211.245L88.7596 231.022C80.7475 240.864 77.1721 253.456 78.8315 266.065ZM96.9703 225.693L74.311 203.033L76.3676 191.549L108.454 223.635L96.9703 225.693ZM287.634 28.1338L143.531 191.012L138.103 185.583C136.233 183.714 133.202 183.714 131.333 185.583C129.462 187.453 129.462 190.484 131.332 192.353L137.174 198.196L118.107 219.748L80.2547 181.896L101.807 162.827L117.792 178.812C118.727 179.747 119.953 180.214 121.178 180.214C122.404 180.214 123.628 179.747 124.563 178.812C126.433 176.943 126.433 173.912 124.563 172.042L108.992 156.471L271.869 12.3691C273.906 10.5674 276.532 9.5748 279.262 9.5748C282.245 9.5748 285.049 10.7367 287.157 12.8455C291.323 17.0104 291.533 23.7264 287.634 28.1338Z" fill="#AD9BCB"/>
</g>
<defs>
<clipPath id="clip0_71_30">
<rect width="300" height="300" fill="white"/>
</clipPath>
</defs>
</svg>
