<svg width="100" height="100" viewBox="0 0 100 100" fill="none" xmlns="http://www.w3.org/2000/svg">
<path d="M65.6187 14.8906C65.0812 14.8906 64.5313 15.0313 64.0156 15.3406L39.725 29.9156C38.2687 30.7906 36.6 31.2531 34.9031 31.2531H21.875C16.6969 31.2531 12.5 35.45 12.5 40.6281V43.7531C9.04688 43.7531 6.25 46.55 6.25 50.0031C6.25 53.4563 9.04688 56.2531 12.5 56.2531V59.3781C12.5 64.5563 16.6969 68.7531 21.875 68.7531H34.5437C36.4688 68.7531 38.3438 69.3438 39.9188 70.4469L63.8313 87.1844C64.3938 87.5781 65.0094 87.7531 65.6125 87.7531C67.2344 87.7531 68.7469 86.4656 68.7469 84.6219V18.0187C68.75 16.1906 67.25 14.8906 65.6187 14.8906ZM9.375 50C9.375 48.2781 10.7781 46.875 12.5 46.875V53.125C10.7781 53.125 9.375 51.7219 9.375 50ZM65.625 84.6219L41.7125 67.8844C39.6 66.4063 37.1219 65.625 34.5437 65.625H21.875C18.4281 65.625 15.625 62.8219 15.625 59.375V40.625C15.625 37.1781 18.4281 34.375 21.875 34.375H34.9031C37.1687 34.375 39.3906 33.7594 41.3344 32.5938L65.625 18.0219V84.6219ZM85.325 68.1344C84.925 68.1344 84.525 67.9813 84.2188 67.6781C83.6094 67.0688 83.6094 66.0781 84.2188 65.4688C92.7469 56.9406 92.7469 43.0625 84.2188 34.5344C83.6094 33.925 83.6094 32.9344 84.2188 32.325C84.8281 31.7156 85.8187 31.7156 86.4281 32.325C96.175 42.0719 96.175 57.9313 86.4281 67.6781C86.125 67.9813 85.725 68.1344 85.325 68.1344ZM80.9031 63.7156C80.5031 63.7156 80.1031 63.5625 79.7969 63.2594C79.1875 62.65 79.1875 61.6594 79.7969 61.05C82.7469 58.0969 84.375 54.1719 84.375 50C84.375 45.8281 82.7469 41.9031 79.7969 38.95C79.1875 38.3406 79.1875 37.35 79.7969 36.7406C80.4062 36.1313 81.3969 36.1313 82.0062 36.7406C85.55 40.2844 87.5 44.9906 87.5 50C87.5 55.0094 85.55 59.7156 82.0062 63.2594C81.7031 63.5625 81.3031 63.7156 80.9031 63.7156Z" fill="#FFC700"/>
</svg>
